<?xml version="1.0" encoding="UTF-8"?>
<svg xmlns="http://www.w3.org/2000/svg" viewBox="0 0 957 957" width="957" height="957">
<path d="M0.25 0.25C319.08 0.25 637.92 0.25 956.75 0.25C956.75 319.08 956.75 637.92 956.75 956.75C637.92 956.75 319.08 956.75 0.25 956.75C0.25 637.92 0.25 319.08 0.25 0.25ZM636.5 43.31C630.41 43.31 624.53 49.74 619.12 52.6C609.43 57.71 599.44 60.58 588.5 61.34C576.39 62.19 564.83 58.28 553.26 55.36C541.26 52.33 528.87 50.69 516.5 50.24C501.03 49.67 485.69 51.18 470.5 54.06C459.44 56.17 448.63 59.98 437.31 60.54C424.21 61.19 411.14 57.8 399.37 52.16C396.04 50.56 386.03 43.11 383.48 42.9C382.4 42.82 382.05 43.26 381.13 43.5C379.72 47.65 381.2 52.04 382.39 56.17C384.96 65.02 388.6 72.99 394.02 80.46C403.2 93.15 416.39 101.38 428.29 111.18C443.8 123.97 458.29 138.1 471.23 153.5C468.06 153.42 464.76 150.57 461.84 148.63C451.51 141.77 433.28 128.68 426.99 147.52C426.02 150.43 425.56 153.55 425.49 156.61C424.94 179.43 444.79 197.98 467.48 196.68C476.13 196.19 483.77 192.03 490.5 186.87C493.73 190.86 494.21 197.57 495.86 202.56C499.4 213.28 503.19 223.88 506.92 234.54C509.18 240.98 509.3 246.76 515.41 251.07C526.05 258.59 541.56 256.69 553.83 257.52C573.17 258.84 593.56 264.63 606.26 280.25C622.43 300.14 624.66 326.92 621.96 351.5C620.96 360.68 620.1 370.17 617.52 379.08C616.21 383.6 613.57 387.81 611.5 392.01C604.76 405.71 596.95 419.18 588.16 431.68C574.65 450.9 560.19 469.4 543.49 486C532.93 496.49 521.63 506.14 510.44 515.96C487.89 535.76 462.21 549.91 455.29 581.67C450.1 605.46 453.25 642.38 469.59 661.88C472.85 665.78 477.11 668.86 481.94 670.52C494.36 674.77 510.74 672.21 515.83 687.6C516.58 689.88 517 692.09 517.07 694.5C517.17 697.59 516.81 700.5 515.92 703.46C514.59 707.84 512.44 711.26 509.5 714.71C508.34 711.74 508.14 708.52 507.11 705.46C504.37 697.36 497.78 683.55 490.12 679.39C468.17 667.47 442.34 681.72 424.01 658.48C417.34 650.03 407.02 629.25 407.77 618.5C407.94 616.1 409.13 613.68 409.74 611.36C411.46 604.82 412.36 597.73 410.41 591.13C405.7 575.13 389.49 575.65 378.38 584.91C357.9 601.98 346.75 636.63 346.9 662.5C346.96 671.92 347.85 681.16 349.26 690.46C350.52 698.69 353.76 701.79 347.75 708.62C321 708.62 294.25 708.62 267.5 708.62C267.57 699.54 271.93 689.35 275.55 681.08C287.14 654.58 308.94 632.77 329.89 613.41C403.42 545.5 479.39 471.07 492.15 366.5C496.73 329 503.31 279.63 463.44 258.03C457.63 254.88 451.56 252.8 445.09 251.47C429.42 248.26 412.57 250.53 397.73 256.27C392.44 258.31 380.83 266.11 376.8 266.5C386.08 253.83 394.35 241.69 395.97 225.5C397.26 212.69 393.27 200 391.11 187.5C388.79 174.02 388.44 160.28 390.42 146.73C391.9 136.61 395.24 126.5 399.91 117.41C401.91 113.51 406.28 109.57 403.72 105.5C400.23 105.63 398.66 109.79 397.2 112.69C393.33 120.33 390.01 128.14 387.88 136.47C383.73 152.77 383.67 169.93 386.1 186.5C388.92 205.73 395.47 220.86 387.73 240.28C383.41 251.1 375.96 260.26 368.56 269.07C356.23 283.75 342.57 297.36 331.66 313.19C305.73 350.8 291.15 395.92 283.21 440.55C276.57 477.88 272.4 515.65 270.24 553.5C269.29 570.15 268.54 586.83 268.05 603.5C267.84 610.8 268.25 618.2 267.71 625.48C267.32 630.83 265.83 636.17 265.19 641.51C263.52 655.33 262.44 669.58 263.02 683.5C263.37 691.88 265.82 700.77 261.5 708.45C243.31 709.65 224.73 708.66 206.5 708.64C174.83 708.59 143.17 708.62 111.5 708.65C99.83 708.66 88.17 708.55 76.5 708.63C74.04 708.65 67.72 707.52 65.77 709.15C64.96 709.83 65.33 710.63 65.08 711.5C67.98 714.21 74.4 712.98 78.5 712.98C90.83 712.98 103.17 712.95 115.5 712.98C147.83 713.03 180.17 713.01 212.5 712.98C222.83 712.96 233.17 712.97 243.5 712.97C249.36 712.97 255.56 712.39 261.28 713.5C260.28 726.12 256.85 748.79 266.62 758.87C274.41 766.92 286.44 763.61 295.51 760.04C314.48 752.57 340.54 730.79 350.5 712.96C371.85 712.96 393.19 712.96 414.54 712.96C417.18 708.25 417.33 702.61 420.59 698.12C428.71 686.92 445.26 690.08 449.68 702.73C451.44 707.76 452.06 713.2 451.8 718.5C451.6 722.37 450.67 725.69 451.5 729.47C455.28 730.55 458.4 728.24 461.32 725.85C469.24 719.37 470.87 711.23 474.5 702.29C478.27 706.61 480.43 712.8 480.86 718.5C481.15 722.37 479.98 726.77 482.5 729.88C493.47 729.33 499.13 712.43 501.5 703.61C502.96 707.12 503.74 710.73 504.24 714.5C504.42 715.89 503.97 718.68 504.66 719.86C505.11 720.64 505.76 720.9 506.39 721.5C513.34 721.21 519.76 708.5 520.84 702.47C521.31 699.84 520.98 696.14 522.23 693.75C524.44 689.54 535.23 686.78 539.5 686.79C553.64 686.84 558.24 700.3 556.92 712.5C556.43 717.04 554.08 722 554.74 726.5C561.54 731.24 570.58 717.57 574.5 713.11C597.45 712.22 620.54 713.06 643.5 712.99C697.5 712.82 751.5 713.12 805.5 712.98C823.5 712.93 841.5 712.98 859.5 712.97C862.38 712.97 874.24 713.9 876.08 712.5C876.79 711.96 876.5 711.23 876.73 710.5C875.76 709.28 877.41 710.21 876.18 709.23C874.12 707.58 860.76 708.66 857.5 708.64C838.83 708.55 820.17 708.61 801.5 708.61C753.5 708.61 705.5 708.45 657.5 708.65C641.17 708.72 624.83 708.56 608.5 708.63C598.13 708.68 587.36 709.44 577.06 708.5C577.8 703.11 580.18 698.14 579.89 692.5C579.72 689.19 578.95 685.81 577.72 682.73C574.09 673.59 565.08 667.83 555.5 666.83C544.92 665.73 533.73 668.97 524.55 661.97C517.03 656.23 513.01 646.54 510.71 637.67C504.53 613.81 509.57 594.27 520.47 572.96C528.15 557.96 538.53 544.41 548.05 530.57C556.94 517.65 565.68 504.72 573.9 491.37C589.16 466.59 602.51 440.24 612.37 412.81C616.1 402.42 618.32 391.65 621.57 381.13C623.39 375.25 626.47 369.8 628.49 363.98C633.15 350.5 636.87 336.65 638.8 322.49C641.11 305.45 640.64 287.64 637.61 270.72C634.64 254.24 628.72 238.38 628.38 221.49C628.15 209.87 631.96 198.69 633.59 187.29C636.27 168.49 636.2 149.31 630.48 131.02C628.51 124.72 625.93 118.52 622.75 112.72C621.85 111.07 620.59 107.55 618.96 106.54C618 105.94 617.52 106.21 616.5 105.97C613.77 110.12 619.71 116.73 621.67 120.79C627.26 132.31 629.97 145.79 630.8 158.5C631.47 168.7 630.32 179.27 628.64 189.33C626.67 201.18 623.32 212.33 623.79 224.5C624.4 240.3 630.16 255.08 632.75 270.55C635.99 289.81 636.48 309.23 633.04 328.5C631.76 335.71 630.6 348.2 626.5 354.08C626.36 346.34 627.8 338.59 627.51 330.79C626.66 307.84 620.1 284.76 601.97 269.52C582.4 253.07 559.42 254.01 535.5 252.24C526.68 251.59 513.82 248.99 512.3 238.39C511.42 232.3 518.77 216.1 521 209.5C523.35 202.52 524.95 194.15 528.5 187.78C535.3 193.01 541.79 196.8 550.5 197.95C573.51 200.99 593.63 184.58 595.44 161.51C595.67 158.54 595.34 155.46 594.75 152.55C594.31 150.33 593.52 148.13 592.33 146.2C584.08 132.73 566.11 145.66 556.75 151.26C554.19 152.79 551.88 154.95 548.99 155.5C552.95 149.7 558.89 144.37 563.95 139.45C573.44 130.21 582.74 120.95 592.73 112.22C604.51 101.9 617.19 92.69 626.03 79.53C631.11 71.97 634.71 63.22 636.67 54.31C637.46 50.72 638.76 46.43 636.5 43.31ZM632.06 50.5C631.62 65.61 621.54 79.44 611.4 89.89C604.33 97.18 596.04 103.27 588.35 109.88C578.38 118.43 568.56 127.5 559.65 137.16C547.55 150.28 535.6 163.89 522.61 176.09C518.37 180.08 514.43 185.04 509.5 188.1C499.84 180.93 492.03 170.33 484.3 161.21C473.95 148.98 463.04 137.13 451.59 125.9C445.91 120.33 439.99 114.67 433.77 109.71C413.41 93.5 390.17 78.49 386.07 50.5C391.65 51.63 397.44 56.3 402.76 58.71C411.76 62.8 421.65 64.83 431.5 65.14C445.33 65.59 458.39 61.03 471.83 58.44C485.26 55.85 498.81 54.48 512.5 54.77C525.28 55.05 537.81 56.61 550.28 59.36C564.48 62.49 577.65 67.06 592.45 65.65C601.2 64.81 609.91 62.16 617.82 58.34C622.61 56.03 627.07 52.04 632.06 50.5ZM448.72 146.5C445.54 157.65 445.36 168.38 457.33 174.2C460.55 175.77 464.21 176.88 467.83 176.44C474.05 175.69 477.76 171.95 482.5 168.39C487.29 172.03 489.04 175.44 489.57 181.5C468.23 201.7 432.77 190.51 430.15 160.5C429.27 150.51 432.16 138.55 444.58 143.87C446.23 144.58 447.42 145.31 448.72 146.5ZM530.15 181.5C531.69 176.02 533.09 173.06 537.5 169.43C542.83 172.58 545.56 177.56 552.5 178.34C563.66 179.59 573.59 170.54 574.03 159.5C574.19 155.64 572.92 152.1 571.71 148.5C573.49 147.27 575.22 146.44 577.28 145.71C591.8 140.59 591.82 159.25 589.65 168.29C584.81 188.41 561.85 198.56 543.22 191.35C538.06 189.35 532.96 186.39 530.15 181.5ZM453.5 148.62C461.7 154.25 469.9 159.87 478.1 165.5C466.38 181.54 442.41 163.78 453.5 148.62ZM567.5 151.12C576.56 168.62 551.98 183.13 542.18 166.5C550.62 161.37 559.06 156.25 567.5 151.12ZM495.5 180.79C499.7 184.9 504.65 192.89 510.5 193.85C515.17 189.6 519.83 185.36 524.5 181.11C524.74 185.69 522.34 191.03 520.9 195.47C518.09 204.18 513.97 220.16 509.58 227.5C504.67 219.11 501.61 205.23 498.7 195.71C497.23 190.92 494.93 185.68 495.5 180.79ZM273.5 601.4C272.12 592.71 273.51 583.29 273.89 574.5C274.69 556.09 275.79 537.71 277.62 519.37C281.64 479.04 286.59 438.89 297.28 399.68C301.64 383.71 308.06 368.37 314.75 353.27C321.62 337.74 330.07 322.41 340.44 308.91C361.19 281.88 389.32 258.09 424.5 254.92C437.19 253.78 450.1 255.97 461.34 262.15C486.5 275.99 495.3 308.46 489.54 335.16C486.72 348.25 480.5 360.4 472.87 371.34C461.14 388.15 444.87 401.82 428.95 414.46C408.96 430.34 387.99 445.39 368.96 462.45C341.89 486.73 316.73 513.2 298.39 544.87C291.56 556.65 285.18 569.04 280.29 581.76C277.81 588.23 275.97 594.93 273.5 601.4ZM488.5 353.19C489.72 360.68 486.67 374.78 484.99 382.5C480.18 404.63 473.65 425.88 463.77 446.31C438.47 498.63 398.89 541.88 356.94 581.45C328.04 608.71 293.63 636.69 274.6 672.12C272.23 676.53 270.48 681.28 268.5 685.87C266.33 678.54 267.54 670.06 267.96 662.5C269.02 642.91 271.9 623.13 277.76 604.37C296.8 543.43 329.28 503.52 376.5 461.99C407.02 435.16 446.12 412.89 471.4 380.88C478.22 372.25 483.41 362.88 488.5 353.19ZM608.7 407.5C608.31 412.82 605.43 417.94 603.41 422.88C600.14 430.91 596.83 438.79 593.17 446.65C577.55 480.19 556.27 510.47 535.36 540.84C520.64 562.21 505.14 585.03 503.45 611.74C502.28 630.3 508.24 662.92 528.94 669.51C541.35 673.45 556.51 667.51 567.36 676.1C581.05 686.93 574.96 713.65 560.5 721C560.71 712.53 562.73 704.07 559.72 695.72C553.68 678.95 533.98 680.02 521.5 688.4C517.67 682.97 516.47 677.18 510.22 673.31C501.83 668.11 491.6 669.32 482.73 665.72C474.05 662.19 468.76 653.63 465.21 645.3C461.26 636.01 458.81 625.53 457.94 615.5C456.52 599.2 457.74 582.44 465.03 567.54C473.43 550.35 489.28 539.01 503.77 527.29C520.05 514.11 536.21 500.38 550.58 485.09C565.02 469.72 578.72 453.61 590.67 436.21C594.75 430.27 598.76 424.16 602.48 417.99C604.54 414.55 606.13 410.52 608.7 407.5ZM355.5 696.97C346.43 667.64 352.48 629.93 368.39 603.88C374.07 594.57 386.62 578.24 399.52 583.9C410.55 588.74 407.39 606.67 403.79 615.33C395.99 634.13 383.84 651.36 372.99 668.48C367.13 677.73 362.37 688.49 355.5 696.97ZM403.5 626.94C407 631.61 408.64 641.08 411.55 646.94C414.19 652.28 417.34 657.72 421.15 662.3C423.21 664.78 425.95 666.77 427.56 669.5C413.72 671.16 400.79 680.17 400.78 695.5C400.78 700.53 403.31 704.17 404.7 708.62C387.95 708.62 371.19 708.62 354.44 708.62C370.8 681.39 387.15 654.16 403.5 626.94ZM486.5 723.42C483.75 714.93 484.52 709.56 479.48 701.01C477.46 697.58 475.64 694.52 471.55 694.5C469.4 697.63 469.74 702.51 468.64 706.24C466.48 713.59 462.22 719.07 456.5 723.96C454.34 714.82 457.18 705.34 451.88 696.63C445.12 685.54 429.31 683.13 419.74 692.24C415.26 696.5 414.15 701.87 411.5 707.14C399.73 696.8 407.36 679.56 420.82 675.4C431.58 672.07 440.87 676.51 451.53 677.72C468.22 679.61 499.59 676.41 496.61 702.33C496.2 705.81 495.24 709.16 493.85 712.38C492.03 716.59 489.49 719.98 486.5 723.42ZM266.5 712.97C292.55 712.97 318.6 712.97 344.65 712.97C341.53 719 336.23 724.13 331.47 728.97C320.98 739.62 308.67 749.48 294.8 755.36C287.47 758.47 277.11 762.69 270.25 756.23C264.31 750.65 264.48 738.91 264.63 731.5C264.76 725.29 265.05 719.02 266.5 712.97ZM108.5 865.61C103.97 862 101.18 855.36 98 850.51C90.75 839.44 83.26 828.53 76 817.47C73.32 813.38 68.47 802.52 63.5 802.53C61.04 807.35 62.41 818.81 62.43 824.5C62.51 841.5 62.47 858.5 62.45 875.5C62.44 880.17 62.49 884.83 62.45 889.5C62.44 891.23 61.79 894.3 62.81 895.79C63.44 896.7 64.6 896.45 65.5 896.44C66.84 894.55 65.74 897.3 66.71 895.31C67.56 893.58 66.95 890.39 66.95 888.5C66.95 883.17 66.94 877.83 66.93 872.5C66.91 860.17 67.01 847.83 66.96 835.5C66.93 828.1 66.13 819.96 67.5 812.75C77.98 826.86 86.78 842.34 96.53 856.97C99.29 861.12 104.2 871.23 108.5 872.71C113.16 869.12 115.88 862.53 119.14 857.67C125.85 847.68 132.21 837.45 139.02 827.52C141.99 823.19 144.96 815.7 149.5 813.35C149.1 834.03 149.54 854.8 149.58 875.5C149.6 880.17 149.58 884.83 149.53 889.5C149.52 890.7 148.92 893.77 149.57 894.86C150.17 895.84 150.68 895.78 151.5 896.46C152.49 895.98 153.1 896.43 153.8 895.34C154.64 894.04 154.05 890.99 154.04 889.5C154.03 884.83 153.99 880.17 154 875.5C154.06 858.17 153.93 840.83 154.03 823.5C154.05 820.08 154.89 805.94 153.77 803.66C152.77 801.63 153.86 804.39 152.5 802.51C146.61 804.38 142.33 814.25 138.95 819.42C128.91 834.8 119.49 850.9 108.5 865.61ZM222.5 896.43C223.62 896 224.13 896.36 225.1 895.42C225.99 894.56 225.47 891.54 225.46 890.5C225.42 886.5 225.46 882.5 225.48 878.5C225.56 859.83 225.45 841.17 225.48 822.5C225.49 817.93 225.46 813.36 225.49 808.78C225.51 807.48 226.06 804.42 225.15 803.31C224.38 802.37 223.36 802.54 222.31 802.5C219.5 806.71 220.91 817.96 220.95 823.5C221.04 840.5 220.94 857.5 220.95 874.5C220.95 879.5 220.99 884.5 220.95 889.5C220.94 891.12 220.43 893.86 221.21 895.34C222.3 897.4 221.05 894.55 222.5 896.43ZM367.5 887.15C363.08 882.84 359.53 877.69 355.49 873.02C341.28 856.56 327.88 839.35 313.35 823.17C308.93 818.25 305.08 812.78 300.81 807.71C299.02 805.58 297.45 802.72 294.5 802.56C293.14 804.32 294.22 801.73 293.19 803.67C292.13 805.67 292.87 820.28 292.89 823.5C293.04 840.83 292.94 858.17 292.93 875.5C292.93 878.74 292.08 893.37 293.16 895.36C294.31 897.46 292.99 894.52 294.5 896.4C295.52 895.99 296.27 896.42 297.05 895.38C298 894.09 297.37 891.01 297.37 889.5C297.37 884.83 297.35 880.17 297.34 875.5C297.26 854.52 298.03 833.44 297.5 812.47C302.39 814.48 310.01 826.05 313.88 830.64C326.54 845.65 339.32 860.55 351.78 875.72C355.99 880.84 360.32 885.86 364.49 891.02C366.48 893.48 368.04 896.52 371.5 896.37C374.16 891.81 372.62 881.12 372.61 875.5C372.58 858.17 372.67 840.83 372.7 823.5C372.71 818.5 372.72 813.5 372.71 808.5C372.71 806.98 373.2 804.44 372.25 803.13C371.59 802.22 370.29 802.51 369.34 802.5C366.55 807.33 368.13 820.37 368.14 826.5C368.14 840.16 368.24 853.84 368.09 867.5C368.02 873.94 368.77 880.89 367.5 887.15ZM502.55 803.5C499.58 801.21 489.62 802.44 485.5 802.42C470.55 802.35 455.42 801.78 440.5 802.6C438.48 809.33 439.68 817.42 439.67 824.5C439.63 839.17 439.59 853.83 439.67 868.5C439.72 876.85 438.07 888.69 440.5 896.38C456.15 896.91 471.85 896.38 487.5 896.46C489.18 896.47 501.54 896.96 502.31 895.95C503.21 894.75 502.79 893.31 502.85 891.93C483.15 891.93 463.45 891.93 443.75 891.93C443.75 878.19 443.75 864.44 443.75 850.7C457 850.71 470.25 850.63 483.5 850.62C485.32 850.62 494.7 851.17 495.54 850.12C496.08 849.44 495.87 848.27 496.01 847.5C492.56 845.03 485.86 846.33 481.5 846.33C472.14 846.35 451.67 847.8 443.74 845.5C443.74 832.83 443.74 820.17 443.74 807.5C449.13 806.44 454.97 806.97 460.5 806.99C469.83 807.02 479.17 806.95 488.5 806.99C491.16 807 500.22 807.84 502 806.34C502.77 805.69 502.48 804.35 502.55 803.5ZM612.55 858.5C618.47 856.85 623.79 855.24 628.36 850.86C638.91 840.76 640 821.6 629.57 810.94C618.6 799.73 600.71 802.26 586.5 802.38C581.25 802.42 574.08 801.16 569.5 803.5C568.68 827.12 569.46 850.86 569.36 874.5C569.35 878.28 568.34 892.61 569.45 895.23C570.02 896.56 571.31 896.46 572.5 896.49C574.83 893.21 573.9 888.64 573.92 884.5C573.97 875.98 573.97 867.46 573.97 858.94C585.11 858.94 596.25 858.94 607.39 858.94C612.28 869.22 620.11 878.59 626.32 888.19C628.77 891.97 630.32 896.79 635.5 896.36C635.27 892.15 631.42 888 629.07 884.37C623.56 875.86 617.12 867.53 612.55 858.5ZM732.5 888.88C729.41 883.13 727.25 876.93 724.49 871.03C716.99 855.05 709.9 838.88 702.65 822.8C700.58 818.22 698.43 813.7 696.43 809.09C695.69 807.37 694.87 804.21 693.39 803.01C692.28 802.11 690.79 802.52 689.5 802.62C689.42 808.58 695.43 817.73 697.98 823.5C705.51 840.56 713.58 857.39 720.97 874.51C723.18 879.6 725.56 884.62 727.77 889.72C729.01 892.58 729.51 895.37 732.5 896.64C736.86 894.99 741.56 880.88 743.62 876.16C751.39 858.38 759.35 840.65 767.59 823.09C769.77 818.46 776.64 806.7 775.5 802.38C774.1 802.47 772.91 802.25 771.83 803.3C769.91 805.17 763.8 820.31 762.31 823.77C756.53 837.2 750.14 850.35 744.25 863.73C741.1 870.88 737.01 883.02 732.5 888.88ZM851.5 802.4C847.21 805.12 842.72 819.59 840.36 824.83C833.31 840.49 826.73 856.4 819.45 871.96C816.81 877.61 809.88 890.56 809.5 896.1C810.88 896.38 812.14 896.93 813.4 895.96C815.33 894.47 821.04 880 822.36 876.82C831.61 854.64 841.44 832.6 851.5 810.78C856.24 815.66 858.43 824.83 861.32 831.2C868.2 846.35 875.03 861.52 881.71 876.75C883.74 881.39 885.67 886.09 887.76 890.71C888.46 892.27 889.15 895.02 890.68 895.98C891.86 896.72 893.23 896.46 894.5 896.28C894.35 891.63 886.89 877.13 884.51 871.99C877.06 855.96 870.25 839.62 862.94 823.52C860.74 818.68 858.73 813.76 856.57 808.9C855.81 807.21 855.05 804.03 853.52 802.91C852.8 802.38 852.3 802.6 851.5 802.4ZM573.94 854.49C573.94 838.83 573.94 823.16 573.94 807.5C579.93 806.4 586.39 806.99 592.5 806.95C609.73 806.85 631.99 805.72 632.51 829.6C632.6 834.21 631.4 838.65 629.08 842.6C621.61 855.3 607.47 854.52 594.5 854.55C587.65 854.56 580.78 854.78 573.94 854.49Z" fill="#fbfbfd" fill-rule="evenodd" stroke="#fbfbfd" stroke-width="0.25" stroke-linejoin="round"/>
<path d="M636.5 43.31C638.76 46.43 637.46 50.72 636.67 54.31C634.71 63.22 631.11 71.97 626.03 79.53C617.19 92.69 604.51 101.9 592.73 112.22C582.74 120.95 573.44 130.21 563.95 139.45C558.89 144.37 552.95 149.7 548.99 155.5C551.88 154.95 554.19 152.79 556.75 151.26C566.11 145.66 584.08 132.73 592.33 146.2C593.52 148.13 594.31 150.33 594.75 152.55C595.34 155.46 595.67 158.54 595.44 161.51C593.63 184.58 573.51 200.99 550.5 197.95C541.79 196.8 535.3 193.01 528.5 187.78C524.95 194.15 523.35 202.52 521 209.5C518.77 216.1 511.42 232.3 512.3 238.39C513.82 248.99 526.68 251.59 535.5 252.24C559.42 254.01 582.4 253.07 601.97 269.52C620.1 284.76 626.66 307.84 627.51 330.79C627.8 338.59 626.36 346.34 626.5 354.08C630.6 348.2 631.76 335.71 633.04 328.5C636.48 309.23 635.99 289.81 632.75 270.55C630.16 255.08 624.4 240.3 623.79 224.5C623.32 212.33 626.67 201.18 628.64 189.33C630.32 179.27 631.47 168.7 630.8 158.5C629.97 145.79 627.26 132.31 621.67 120.79C619.71 116.73 613.77 110.12 616.5 105.97C617.52 106.21 618 105.94 618.96 106.54C620.59 107.55 621.85 111.07 622.75 112.72C625.93 118.52 628.51 124.72 630.48 131.02C636.2 149.31 636.27 168.49 633.59 187.29C631.96 198.69 628.15 209.87 628.38 221.49C628.72 238.38 634.64 254.24 637.61 270.72C640.64 287.64 641.11 305.45 638.8 322.49C636.87 336.65 633.15 350.5 628.49 363.98C626.47 369.8 623.39 375.25 621.57 381.13C618.32 391.65 616.1 402.42 612.37 412.81C602.51 440.24 589.16 466.59 573.9 491.37C565.68 504.72 556.94 517.65 548.05 530.57C538.53 544.41 528.15 557.96 520.47 572.96C509.57 594.27 504.53 613.81 510.71 637.67C513.01 646.54 517.03 656.23 524.55 661.97C533.73 668.97 544.92 665.73 555.5 666.83C565.08 667.83 574.09 673.59 577.72 682.73C578.95 685.81 579.72 689.19 579.89 692.5C580.18 698.14 577.8 703.11 577.06 708.5C587.36 709.44 598.13 708.68 608.5 708.63C624.83 708.56 641.17 708.72 657.5 708.65C705.5 708.45 753.5 708.61 801.5 708.61C820.17 708.61 838.83 708.55 857.5 708.64C860.76 708.66 874.12 707.58 876.18 709.23C877.41 710.21 875.76 709.28 876.73 710.5C876.5 711.23 876.79 711.96 876.08 712.5C874.24 713.9 862.38 712.97 859.5 712.97C841.5 712.98 823.5 712.93 805.5 712.98C751.5 713.12 697.5 712.82 643.5 712.99C620.54 713.06 597.45 712.22 574.5 713.11C570.58 717.57 561.54 731.24 554.74 726.5C554.08 722 556.43 717.04 556.92 712.5C558.24 700.3 553.64 686.84 539.5 686.79C535.23 686.78 524.44 689.54 522.23 693.75C520.98 696.14 521.31 699.84 520.84 702.47C519.76 708.5 513.34 721.21 506.39 721.5C505.76 720.9 505.11 720.64 504.66 719.86C503.97 718.68 504.42 715.89 504.24 714.5C503.74 710.73 502.96 707.12 501.5 703.61C499.13 712.43 493.47 729.33 482.5 729.88C479.98 726.77 481.15 722.37 480.86 718.5C480.43 712.8 478.27 706.61 474.5 702.29C470.87 711.23 469.24 719.37 461.32 725.85C458.4 728.24 455.28 730.55 451.5 729.47C450.67 725.69 451.6 722.37 451.8 718.5C452.06 713.2 451.44 707.76 449.68 702.73C445.26 690.08 428.71 686.92 420.59 698.12C417.33 702.61 417.18 708.25 414.54 712.96C393.19 712.96 371.85 712.96 350.5 712.96C340.54 730.79 314.48 752.57 295.51 760.04C286.44 763.61 274.41 766.92 266.62 758.87C256.85 748.79 260.28 726.12 261.28 713.5C255.56 712.39 249.36 712.97 243.5 712.97C233.17 712.97 222.83 712.96 212.5 712.98C180.17 713.01 147.83 713.03 115.5 712.98C103.17 712.95 90.83 712.98 78.5 712.98C74.4 712.98 67.98 714.21 65.08 711.5C65.33 710.63 64.96 709.83 65.77 709.15C67.72 707.52 74.04 708.65 76.5 708.63C88.17 708.55 99.83 708.66 111.5 708.65C143.17 708.62 174.83 708.59 206.5 708.64C224.73 708.66 243.31 709.65 261.5 708.45C265.82 700.77 263.37 691.88 263.02 683.5C262.44 669.58 263.52 655.33 265.19 641.51C265.83 636.17 267.32 630.83 267.71 625.48C268.25 618.2 267.84 610.8 268.05 603.5C268.54 586.83 269.29 570.15 270.24 553.5C272.4 515.65 276.57 477.88 283.21 440.55C291.15 395.92 305.73 350.8 331.66 313.19C342.57 297.36 356.23 283.75 368.56 269.07C375.96 260.26 383.41 251.1 387.73 240.28C395.47 220.86 388.92 205.73 386.1 186.5C383.67 169.93 383.73 152.77 387.88 136.47C390.01 128.14 393.33 120.33 397.2 112.69C398.66 109.79 400.23 105.63 403.72 105.5C406.28 109.57 401.91 113.51 399.91 117.41C395.24 126.5 391.9 136.61 390.42 146.73C388.44 160.28 388.79 174.02 391.11 187.5C393.27 200 397.26 212.69 395.97 225.5C394.35 241.69 386.08 253.83 376.8 266.5C380.83 266.11 392.44 258.31 397.73 256.27C412.57 250.53 429.42 248.26 445.09 251.47C451.56 252.8 457.63 254.88 463.44 258.03C503.31 279.63 496.73 329 492.15 366.5C479.39 471.07 403.42 545.5 329.89 613.41C308.94 632.77 287.14 654.58 275.55 681.08C271.93 689.35 267.57 699.54 267.5 708.62C294.25 708.62 321 708.62 347.75 708.62C353.76 701.79 350.52 698.69 349.26 690.46C347.85 681.16 346.96 671.92 346.9 662.5C346.75 636.63 357.9 601.98 378.38 584.91C389.49 575.65 405.7 575.13 410.41 591.13C412.36 597.73 411.46 604.82 409.74 611.36C409.13 613.68 407.94 616.1 407.77 618.5C407.02 629.25 417.34 650.03 424.01 658.48C442.34 681.72 468.17 667.47 490.12 679.39C497.78 683.55 504.37 697.36 507.11 705.46C508.14 708.52 508.34 711.74 509.5 714.71C512.44 711.26 514.59 707.84 515.92 703.46C516.81 700.5 517.17 697.59 517.07 694.5C517 692.09 516.58 689.88 515.83 687.6C510.74 672.21 494.36 674.77 481.94 670.52C477.11 668.86 472.85 665.78 469.59 661.88C453.25 642.38 450.1 605.46 455.29 581.67C462.21 549.91 487.89 535.76 510.44 515.96C521.63 506.14 532.93 496.49 543.49 486C560.19 469.4 574.65 450.9 588.16 431.68C596.95 419.18 604.76 405.71 611.5 392.01C613.57 387.81 616.21 383.6 617.52 379.08C620.1 370.17 620.96 360.68 621.96 351.5C624.66 326.92 622.43 300.14 606.26 280.25C593.56 264.63 573.17 258.84 553.83 257.52C541.56 256.69 526.05 258.59 515.41 251.07C509.3 246.76 509.18 240.98 506.92 234.54C503.19 223.88 499.4 213.28 495.86 202.56C494.21 197.57 493.73 190.86 490.5 186.87C483.77 192.03 476.13 196.19 467.48 196.68C444.79 197.98 424.94 179.43 425.49 156.61C425.56 153.55 426.02 150.43 426.99 147.52C433.28 128.68 451.51 141.77 461.84 148.63C464.76 150.57 468.06 153.42 471.23 153.5C458.29 138.1 443.8 123.97 428.29 111.18C416.39 101.38 403.2 93.15 394.02 80.46C388.6 72.99 384.96 65.02 382.39 56.17C381.2 52.04 379.72 47.65 381.13 43.5C382.05 43.26 382.4 42.82 383.48 42.9C386.03 43.11 396.04 50.56 399.37 52.16C411.14 57.8 424.21 61.19 437.31 60.54C448.63 59.98 459.44 56.17 470.5 54.06C485.69 51.18 501.03 49.67 516.5 50.24C528.87 50.69 541.26 52.33 553.26 55.36C564.83 58.28 576.39 62.19 588.5 61.34C599.44 60.58 609.43 57.71 619.12 52.6C624.53 49.74 630.41 43.31 636.5 43.31ZM632.06 50.5C627.07 52.04 622.61 56.03 617.82 58.34C609.91 62.16 601.2 64.81 592.45 65.65C577.65 67.06 564.48 62.49 550.28 59.36C537.81 56.61 525.28 55.05 512.5 54.77C498.81 54.48 485.26 55.85 471.83 58.44C458.39 61.03 445.33 65.59 431.5 65.14C421.65 64.83 411.76 62.8 402.76 58.71C397.44 56.3 391.65 51.63 386.07 50.5C390.17 78.49 413.41 93.5 433.77 109.71C439.99 114.67 445.91 120.33 451.59 125.9C463.04 137.13 473.95 148.98 484.3 161.21C492.03 170.33 499.84 180.93 509.5 188.1C514.43 185.04 518.37 180.08 522.61 176.09C535.6 163.89 547.55 150.28 559.65 137.16C568.56 127.5 578.38 118.43 588.35 109.88C596.04 103.27 604.33 97.18 611.4 89.89C621.54 79.44 631.62 65.61 632.06 50.5ZM448.72 146.5C447.42 145.31 446.23 144.58 444.58 143.87C432.16 138.55 429.27 150.51 430.15 160.5C432.77 190.51 468.23 201.7 489.57 181.5C489.04 175.44 487.29 172.03 482.5 168.39C477.76 171.95 474.05 175.69 467.83 176.44C464.21 176.88 460.55 175.77 457.33 174.2C445.36 168.38 445.54 157.65 448.72 146.5ZM530.15 181.5C532.96 186.39 538.06 189.35 543.22 191.35C561.85 198.56 584.81 188.41 589.65 168.29C591.82 159.25 591.8 140.59 577.28 145.71C575.22 146.44 573.49 147.27 571.71 148.5C572.92 152.1 574.19 155.64 574.03 159.5C573.59 170.54 563.66 179.59 552.5 178.34C545.56 177.56 542.83 172.58 537.5 169.43C533.09 173.06 531.69 176.02 530.15 181.5ZM453.5 148.62C442.41 163.78 466.38 181.54 478.1 165.5C469.9 159.87 461.7 154.25 453.5 148.62ZM567.5 151.12C559.06 156.25 550.62 161.37 542.18 166.5C551.98 183.13 576.56 168.62 567.5 151.12ZM495.5 180.79C494.93 185.68 497.23 190.92 498.7 195.71C501.61 205.23 504.67 219.11 509.58 227.5C513.97 220.16 518.09 204.18 520.9 195.47C522.34 191.03 524.74 185.69 524.5 181.11C519.83 185.36 515.17 189.6 510.5 193.85C504.65 192.89 499.7 184.9 495.5 180.79ZM273.5 601.4C275.97 594.93 277.81 588.23 280.29 581.76C285.18 569.04 291.56 556.65 298.39 544.87C316.73 513.2 341.89 486.73 368.96 462.45C387.99 445.39 408.96 430.34 428.95 414.46C444.87 401.82 461.14 388.15 472.87 371.34C480.5 360.4 486.72 348.25 489.54 335.16C495.3 308.46 486.5 275.99 461.34 262.15C450.1 255.97 437.19 253.78 424.5 254.92C389.32 258.09 361.19 281.88 340.44 308.91C330.07 322.41 321.62 337.74 314.75 353.27C308.06 368.37 301.64 383.71 297.28 399.68C286.59 438.89 281.64 479.04 277.62 519.37C275.79 537.71 274.69 556.09 273.89 574.5C273.51 583.29 272.12 592.71 273.5 601.4ZM488.5 353.19C483.41 362.88 478.22 372.25 471.4 380.88C446.12 412.89 407.02 435.16 376.5 461.99C329.28 503.52 296.8 543.43 277.76 604.37C271.9 623.13 269.02 642.91 267.96 662.5C267.54 670.06 266.33 678.54 268.5 685.87C270.48 681.28 272.23 676.53 274.6 672.12C293.63 636.69 328.04 608.71 356.94 581.45C398.89 541.88 438.47 498.63 463.77 446.31C473.65 425.88 480.18 404.63 484.99 382.5C486.67 374.78 489.72 360.68 488.5 353.19ZM608.7 407.5C606.13 410.52 604.54 414.55 602.48 417.99C598.76 424.16 594.75 430.27 590.67 436.21C578.72 453.61 565.02 469.72 550.58 485.09C536.21 500.38 520.05 514.11 503.77 527.29C489.28 539.01 473.43 550.35 465.03 567.54C457.74 582.44 456.52 599.2 457.94 615.5C458.81 625.53 461.26 636.01 465.21 645.3C468.76 653.63 474.05 662.19 482.73 665.72C491.6 669.32 501.83 668.11 510.22 673.31C516.47 677.18 517.67 682.97 521.5 688.4C533.98 680.02 553.68 678.95 559.72 695.72C562.73 704.07 560.71 712.53 560.5 721C574.96 713.65 581.05 686.93 567.36 676.1C556.51 667.51 541.35 673.45 528.94 669.51C508.24 662.92 502.28 630.3 503.45 611.74C505.14 585.03 520.64 562.21 535.36 540.84C556.27 510.47 577.55 480.19 593.17 446.65C596.83 438.79 600.14 430.91 603.41 422.88C605.43 417.94 608.31 412.82 608.7 407.5ZM355.5 696.97C362.37 688.49 367.13 677.73 372.99 668.48C383.84 651.36 395.99 634.13 403.79 615.33C407.39 606.67 410.55 588.74 399.52 583.9C386.62 578.24 374.07 594.57 368.39 603.88C352.48 629.93 346.43 667.64 355.5 696.97ZM403.5 626.94C387.15 654.16 370.8 681.39 354.44 708.62C371.19 708.62 387.95 708.62 404.7 708.62C403.31 704.17 400.78 700.53 400.78 695.5C400.79 680.17 413.72 671.16 427.56 669.5C425.95 666.77 423.21 664.78 421.15 662.3C417.34 657.72 414.19 652.28 411.55 646.94C408.64 641.08 407 631.61 403.5 626.94ZM486.5 723.42C489.49 719.98 492.03 716.59 493.85 712.38C495.24 709.16 496.2 705.81 496.61 702.33C499.59 676.41 468.22 679.61 451.53 677.72C440.87 676.51 431.58 672.07 420.82 675.4C407.36 679.56 399.73 696.8 411.5 707.14C414.15 701.87 415.26 696.5 419.74 692.24C429.31 683.13 445.12 685.54 451.88 696.63C457.18 705.34 454.34 714.82 456.5 723.96C462.22 719.07 466.48 713.59 468.64 706.24C469.74 702.51 469.4 697.63 471.55 694.5C475.64 694.52 477.46 697.58 479.48 701.01C484.52 709.56 483.75 714.93 486.5 723.42ZM266.5 712.97C265.05 719.02 264.76 725.29 264.63 731.5C264.48 738.91 264.31 750.65 270.25 756.23C277.11 762.69 287.47 758.47 294.8 755.36C308.67 749.48 320.98 739.62 331.47 728.97C336.23 724.13 341.53 719 344.65 712.97C318.6 712.97 292.55 712.97 266.5 712.97ZM108.5 865.61C119.49 850.9 128.91 834.8 138.95 819.42C142.33 814.25 146.61 804.38 152.5 802.51C153.86 804.39 152.77 801.63 153.77 803.66C154.89 805.94 154.05 820.08 154.03 823.5C153.93 840.83 154.06 858.17 154 875.5C153.99 880.17 154.03 884.83 154.04 889.5C154.05 890.99 154.64 894.04 153.8 895.34C153.1 896.43 152.49 895.98 151.5 896.46C150.68 895.78 150.17 895.84 149.57 894.86C148.92 893.77 149.52 890.7 149.53 889.5C149.58 884.83 149.6 880.17 149.58 875.5C149.54 854.8 149.1 834.03 149.5 813.35C144.96 815.7 141.99 823.19 139.02 827.52C132.21 837.45 125.85 847.68 119.14 857.67C115.88 862.53 113.16 869.12 108.5 872.71C104.2 871.23 99.29 861.12 96.53 856.97C86.78 842.34 77.98 826.86 67.5 812.75C66.13 819.96 66.93 828.1 66.96 835.5C67.01 847.83 66.91 860.17 66.93 872.5C66.94 877.83 66.95 883.17 66.95 888.5C66.95 890.39 67.56 893.58 66.71 895.31C65.74 897.3 66.84 894.55 65.5 896.44C64.6 896.45 63.44 896.7 62.81 895.79C61.79 894.3 62.44 891.23 62.45 889.5C62.49 884.83 62.44 880.17 62.45 875.5C62.47 858.5 62.51 841.5 62.43 824.5C62.41 818.81 61.04 807.35 63.5 802.53C68.47 802.52 73.32 813.38 76 817.47C83.26 828.53 90.75 839.44 98 850.51C101.18 855.36 103.97 862 108.5 865.61ZM222.5 896.43C221.05 894.55 222.3 897.4 221.21 895.34C220.43 893.86 220.94 891.12 220.95 889.5C220.99 884.5 220.95 879.5 220.95 874.5C220.94 857.5 221.04 840.5 220.95 823.5C220.91 817.96 219.5 806.71 222.31 802.5C223.36 802.54 224.38 802.37 225.15 803.31C226.06 804.42 225.51 807.48 225.49 808.78C225.46 813.36 225.49 817.93 225.48 822.5C225.45 841.17 225.56 859.83 225.48 878.5C225.46 882.5 225.42 886.5 225.46 890.5C225.47 891.54 225.99 894.56 225.1 895.42C224.13 896.36 223.62 896 222.5 896.43ZM367.5 887.15C368.77 880.89 368.02 873.94 368.09 867.5C368.24 853.84 368.14 840.16 368.14 826.5C368.13 820.37 366.55 807.33 369.34 802.5C370.29 802.51 371.59 802.22 372.25 803.13C373.2 804.44 372.71 806.98 372.71 808.5C372.72 813.5 372.71 818.5 372.7 823.5C372.67 840.83 372.58 858.17 372.61 875.5C372.62 881.12 374.16 891.81 371.5 896.37C368.04 896.52 366.48 893.48 364.49 891.02C360.32 885.86 355.99 880.84 351.78 875.72C339.32 860.55 326.54 845.65 313.88 830.64C310.01 826.05 302.39 814.48 297.5 812.47C298.03 833.44 297.26 854.52 297.34 875.5C297.35 880.17 297.37 884.83 297.37 889.5C297.37 891.01 298 894.09 297.05 895.38C296.27 896.42 295.52 895.99 294.5 896.4C292.99 894.52 294.31 897.46 293.16 895.36C292.08 893.37 292.93 878.74 292.93 875.5C292.94 858.17 293.04 840.83 292.89 823.5C292.87 820.28 292.13 805.67 293.19 803.67C294.22 801.73 293.14 804.32 294.5 802.56C297.45 802.72 299.02 805.58 300.81 807.71C305.08 812.78 308.93 818.25 313.35 823.17C327.88 839.35 341.28 856.56 355.49 873.02C359.53 877.69 363.08 882.84 367.5 887.15ZM502.55 803.5C502.48 804.35 502.77 805.69 502 806.34C500.22 807.84 491.16 807 488.5 806.99C479.17 806.95 469.83 807.02 460.5 806.99C454.97 806.97 449.13 806.44 443.74 807.5C443.74 820.17 443.74 832.83 443.74 845.5C451.67 847.8 472.14 846.35 481.5 846.33C485.86 846.33 492.56 845.03 496.01 847.5C495.87 848.27 496.08 849.44 495.54 850.12C494.7 851.17 485.32 850.62 483.5 850.62C470.25 850.63 457 850.71 443.75 850.7C443.75 864.44 443.75 878.19 443.75 891.93C463.45 891.93 483.15 891.93 502.85 891.93C502.79 893.31 503.21 894.75 502.31 895.95C501.54 896.96 489.18 896.47 487.5 896.46C471.85 896.38 456.15 896.91 440.5 896.38C438.07 888.69 439.72 876.85 439.67 868.5C439.59 853.83 439.63 839.17 439.67 824.5C439.68 817.42 438.48 809.33 440.5 802.6C455.42 801.78 470.55 802.35 485.5 802.42C489.62 802.44 499.58 801.21 502.55 803.5ZM612.55 858.5C617.12 867.53 623.56 875.86 629.07 884.37C631.42 888 635.27 892.15 635.5 896.36C630.32 896.79 628.77 891.97 626.32 888.19C620.11 878.59 612.28 869.22 607.39 858.94C596.25 858.94 585.11 858.94 573.97 858.94C573.97 867.46 573.97 875.98 573.92 884.5C573.9 888.64 574.83 893.21 572.5 896.49C571.31 896.46 570.02 896.56 569.45 895.23C568.34 892.61 569.35 878.28 569.36 874.5C569.46 850.86 568.68 827.12 569.5 803.5C574.08 801.16 581.25 802.42 586.5 802.38C600.71 802.26 618.6 799.73 629.57 810.94C640 821.6 638.91 840.76 628.36 850.86C623.79 855.24 618.47 856.85 612.55 858.5ZM732.5 888.88C737.01 883.02 741.1 870.88 744.25 863.73C750.14 850.35 756.53 837.2 762.31 823.77C763.8 820.31 769.91 805.17 771.83 803.3C772.91 802.25 774.1 802.47 775.5 802.38C776.64 806.7 769.77 818.46 767.59 823.09C759.35 840.65 751.39 858.38 743.62 876.16C741.56 880.88 736.86 894.99 732.5 896.64C729.51 895.37 729.01 892.58 727.77 889.72C725.56 884.62 723.18 879.6 720.97 874.51C713.58 857.39 705.51 840.56 697.98 823.5C695.43 817.73 689.42 808.58 689.5 802.62C690.79 802.52 692.28 802.11 693.39 803.01C694.87 804.21 695.69 807.37 696.43 809.09C698.43 813.7 700.58 818.22 702.65 822.8C709.9 838.88 716.99 855.05 724.49 871.03C727.25 876.93 729.41 883.13 732.5 888.88ZM851.5 802.4C852.3 802.6 852.8 802.38 853.52 802.91C855.05 804.03 855.81 807.21 856.57 808.9C858.73 813.76 860.74 818.68 862.94 823.52C870.25 839.62 877.06 855.96 884.51 871.99C886.89 877.13 894.35 891.63 894.5 896.28C893.23 896.46 891.86 896.72 890.68 895.98C889.15 895.02 888.46 892.27 887.76 890.71C885.67 886.09 883.74 881.39 881.71 876.75C875.03 861.52 868.2 846.35 861.32 831.2C858.43 824.83 856.24 815.66 851.5 810.78C841.44 832.6 831.61 854.64 822.36 876.82C821.04 880 815.33 894.47 813.4 895.96C812.14 896.93 810.88 896.38 809.5 896.1C809.88 890.56 816.81 877.61 819.45 871.96C826.73 856.4 833.31 840.49 840.36 824.83C842.72 819.59 847.21 805.12 851.5 802.4ZM573.94 854.49C580.78 854.78 587.65 854.56 594.5 854.55C607.47 854.52 621.61 855.3 629.08 842.6C631.4 838.65 632.6 834.21 632.51 829.6C631.99 805.72 609.73 806.85 592.5 806.95C586.39 806.99 579.93 806.4 573.94 807.5C573.94 823.16 573.94 838.83 573.94 854.49Z" fill="#2e1262" fill-rule="evenodd" stroke="#2e1262" stroke-width="0.25" stroke-linejoin="round"/>
</svg>